<svg width="151" height="28" viewBox="0 0 151 28" fill="none" xmlns="http://www.w3.org/2000/svg">
<path d="M1.6634 26.1182V21.1952H0V20.6071H4.03249V21.1952H2.36909V26.1182H1.6634Z" fill="black"/>
<path d="M4.95772 26.1182V20.1366H5.64661V21.7664L5.6214 22.6065C5.81743 22.4217 6.02185 22.2649 6.23468 22.1361C6.4531 22.0017 6.70234 21.9345 6.98237 21.9345C7.41362 21.9345 7.72726 22.0717 7.92329 22.3461C8.12491 22.6149 8.22572 23.0098 8.22572 23.5307V26.1182H7.53684V23.6231C7.53684 23.2422 7.47523 22.965 7.35201 22.7914C7.2288 22.6177 7.03278 22.5309 6.76394 22.5309C6.55672 22.5309 6.36909 22.5841 6.20107 22.6906C6.03865 22.797 5.85383 22.9538 5.64661 23.161V26.1182H4.95772Z" fill="black"/>
<path d="M11.1824 26.219C10.8184 26.219 10.4879 26.135 10.1911 25.967C9.89427 25.7933 9.65904 25.5469 9.48542 25.2277C9.3118 24.9084 9.22498 24.5276 9.22498 24.0851C9.22498 23.6371 9.3118 23.2534 9.48542 22.9342C9.66464 22.6149 9.89427 22.3685 10.1743 22.1949C10.4543 22.0213 10.7484 21.9345 11.0564 21.9345C11.5773 21.9345 11.9777 22.1081 12.2578 22.4553C12.5434 22.8026 12.6862 23.2674 12.6862 23.8499C12.6862 23.9227 12.6834 23.9955 12.6778 24.0683C12.6778 24.1355 12.6722 24.1943 12.661 24.2447H9.90547C9.93347 24.676 10.0679 25.0204 10.3087 25.2781C10.5551 25.5357 10.8744 25.6645 11.2664 25.6645C11.4625 25.6645 11.6417 25.6365 11.8041 25.5805C11.9721 25.5189 12.1317 25.4405 12.283 25.3453L12.5266 25.7989C12.353 25.9109 12.1541 26.009 11.9301 26.093C11.7117 26.177 11.4625 26.219 11.1824 26.219ZM9.89707 23.7491H12.0813C12.0813 23.3346 11.9917 23.021 11.8125 22.8082C11.6389 22.5897 11.3924 22.4805 11.0732 22.4805C10.7876 22.4805 10.5299 22.5925 10.3003 22.8166C10.0763 23.035 9.94187 23.3458 9.89707 23.7491Z" fill="black"/>
<path d="M15.4442 26.1182V20.6071H16.1667L18.1577 24.0683L18.7542 25.2109H18.7878C18.771 24.9308 18.7514 24.6424 18.729 24.3456C18.7122 24.0431 18.7038 23.7463 18.7038 23.455V20.6071H19.3675V26.1182H18.645L16.6455 22.6485L16.049 21.5144H16.0154C16.0378 21.7888 16.0574 22.0717 16.0743 22.3629C16.0967 22.6541 16.1079 22.9454 16.1079 23.2366V26.1182H15.4442Z" fill="black"/>
<path d="M22.4713 26.219C22.1073 26.219 21.7768 26.135 21.48 25.967C21.1831 25.7933 20.9479 25.5469 20.7743 25.2277C20.6007 24.9084 20.5139 24.5276 20.5139 24.0851C20.5139 23.6371 20.6007 23.2534 20.7743 22.9342C20.9535 22.6149 21.1831 22.3685 21.4632 22.1949C21.7432 22.0213 22.0373 21.9345 22.3453 21.9345C22.8662 21.9345 23.2666 22.1081 23.5466 22.4553C23.8323 22.8026 23.9751 23.2674 23.9751 23.8499C23.9751 23.9227 23.9723 23.9955 23.9667 24.0683C23.9667 24.1355 23.9611 24.1943 23.9499 24.2447H21.1944C21.2224 24.676 21.3568 25.0204 21.5976 25.2781C21.844 25.5357 22.1633 25.6645 22.5553 25.6645C22.7513 25.6645 22.9306 25.6365 23.093 25.5805C23.261 25.5189 23.4206 25.4405 23.5718 25.3453L23.8155 25.7989C23.6419 25.9109 23.443 26.009 23.219 26.093C23.0006 26.177 22.7513 26.219 22.4713 26.219ZM21.1859 23.7491H23.3702C23.3702 23.3346 23.2806 23.021 23.1014 22.8082C22.9278 22.5897 22.6813 22.4805 22.3621 22.4805C22.0765 22.4805 21.8188 22.5925 21.5892 22.8166C21.3652 23.035 21.2308 23.3458 21.1859 23.7491Z" fill="black"/>
<path d="M25.6719 26.1182L24.5378 22.0353H25.2434L25.8483 24.396C25.8931 24.5864 25.9351 24.7768 25.9743 24.9672C26.0135 25.1521 26.0527 25.3397 26.092 25.5301H26.1256C26.1704 25.3397 26.2152 25.1521 26.26 24.9672C26.3048 24.7768 26.3524 24.5864 26.4028 24.396L27.0329 22.0353H27.705L28.3434 24.396C28.3938 24.5864 28.4414 24.7768 28.4862 24.9672C28.5367 25.1521 28.5843 25.3397 28.6291 25.5301H28.6627C28.7075 25.3397 28.7495 25.1521 28.7887 24.9672C28.8335 24.7768 28.8755 24.5864 28.9147 24.396L29.5112 22.0353H30.1665L29.0743 26.1182H28.2342L27.6461 23.9255C27.5957 23.7295 27.5481 23.5363 27.5033 23.3458C27.4641 23.1554 27.4193 22.9566 27.3689 22.7494H27.3353C27.2905 22.9566 27.2457 23.1582 27.2009 23.3542C27.1561 23.5447 27.1057 23.7379 27.0497 23.9339L26.4784 26.1182H25.6719Z" fill="black"/>
<path d="M32.122 26.219C31.8308 26.219 31.5535 26.1658 31.2903 26.0594C31.0271 25.9474 30.7974 25.8129 30.6014 25.6561L30.9458 25.1941C31.1251 25.3341 31.3099 25.4517 31.5003 25.5469C31.6907 25.6365 31.9064 25.6813 32.1472 25.6813C32.416 25.6813 32.6176 25.6197 32.7521 25.4965C32.8865 25.3677 32.9537 25.2165 32.9537 25.0428C32.9537 24.9028 32.9061 24.7852 32.8109 24.69C32.7213 24.5948 32.6036 24.5164 32.458 24.4548C32.318 24.3876 32.1724 24.326 32.0212 24.2699C31.8308 24.1971 31.6431 24.1159 31.4583 24.0263C31.2735 23.9311 31.1223 23.8107 31.0046 23.6651C30.887 23.5139 30.8282 23.3234 30.8282 23.0938C30.8282 22.7634 30.9514 22.4889 31.1979 22.2705C31.4499 22.0465 31.7971 21.9345 32.2396 21.9345C32.4916 21.9345 32.7269 21.9793 32.9453 22.0689C33.1637 22.1585 33.3513 22.2677 33.5082 22.3965L33.1721 22.8334C33.0321 22.727 32.8865 22.6401 32.7353 22.5729C32.584 22.5057 32.4188 22.4721 32.2396 22.4721C31.982 22.4721 31.7915 22.5309 31.6683 22.6485C31.5507 22.7662 31.4919 22.9034 31.4919 23.0602C31.4919 23.189 31.5339 23.2954 31.6179 23.3794C31.7019 23.4578 31.8111 23.5279 31.9456 23.5895C32.08 23.6455 32.2228 23.7043 32.374 23.7659C32.57 23.8387 32.7633 23.9227 32.9537 24.0179C33.1441 24.1075 33.3009 24.2307 33.4241 24.3876C33.553 24.5388 33.6174 24.7432 33.6174 25.0008C33.6174 25.2193 33.5586 25.4209 33.4409 25.6057C33.3289 25.7905 33.1609 25.939 32.9369 26.051C32.7185 26.163 32.4468 26.219 32.122 26.219Z" fill="black"/>
<path d="M36.3237 26.1182V20.6071H37.1638L38.2223 23.5475C38.2895 23.7379 38.3539 23.9311 38.4155 24.1271C38.4827 24.3176 38.55 24.508 38.6172 24.6984H38.6508C38.718 24.508 38.7796 24.3176 38.8356 24.1271C38.8972 23.9311 38.9616 23.7379 39.0288 23.5475L40.0705 20.6071H40.919V26.1182H40.2638V23.0854C40.2638 22.839 40.275 22.5673 40.2974 22.2705C40.3198 21.9681 40.3394 21.6964 40.3562 21.4556H40.3226L39.8857 22.7074L38.844 25.5637H38.3819L37.3402 22.7074L36.9034 21.4556H36.8697C36.8866 21.6964 36.9034 21.9681 36.9202 22.2705C36.9426 22.5673 36.9538 22.839 36.9538 23.0854V26.1182H36.3237Z" fill="black"/>
<path d="M43.3013 26.219C42.9596 26.219 42.674 26.1182 42.4444 25.9165C42.2203 25.7093 42.1083 25.4237 42.1083 25.0596C42.1083 24.6116 42.3071 24.2699 42.7048 24.0347C43.108 23.7939 43.7437 23.6259 44.6118 23.5307C44.6118 23.357 44.5866 23.1918 44.5362 23.035C44.4914 22.8782 44.4074 22.7522 44.2842 22.6569C44.1666 22.5561 43.9957 22.5057 43.7717 22.5057C43.5365 22.5057 43.3153 22.5505 43.108 22.6401C42.9008 22.7298 42.716 22.8306 42.5536 22.9426L42.2847 22.4637C42.4752 22.3405 42.7076 22.2229 42.982 22.1109C43.2621 21.9933 43.5645 21.9345 43.8893 21.9345C44.3878 21.9345 44.749 22.0885 44.9731 22.3965C45.1971 22.699 45.3091 23.105 45.3091 23.6147V26.1182H44.7378L44.679 25.6309H44.6538C44.4634 25.7877 44.2534 25.9249 44.0237 26.0426C43.7997 26.1602 43.5589 26.219 43.3013 26.219ZM43.5029 25.6645C43.6989 25.6645 43.8837 25.6169 44.0574 25.5217C44.231 25.4265 44.4158 25.2921 44.6118 25.1184V23.9843C43.9341 24.0683 43.4581 24.1943 43.1836 24.3624C42.9148 24.5304 42.7804 24.746 42.7804 25.0092C42.7804 25.2389 42.8504 25.4069 42.9904 25.5133C43.1304 25.6141 43.3013 25.6645 43.5029 25.6645Z" fill="black"/>
<path d="M46.5937 26.1182V22.0353H47.1649L47.2238 22.7746H47.249C47.389 22.5169 47.5598 22.3125 47.7614 22.1613C47.963 22.0101 48.1787 21.9345 48.4083 21.9345C48.5707 21.9345 48.7163 21.9625 48.8452 22.0185L48.7107 22.6233C48.6435 22.6009 48.5819 22.5841 48.5259 22.5729C48.4699 22.5617 48.3999 22.5561 48.3159 22.5561C48.1423 22.5561 47.9602 22.6261 47.7698 22.7662C47.585 22.9062 47.4226 23.1498 47.2826 23.4971V26.1182H46.5937Z" fill="black"/>
<path d="M49.5061 26.1182V20.1366H50.1866V24.1859H50.2118L51.9508 22.0353H52.7153L51.346 23.6735L52.9002 26.1182H52.1441L50.9511 24.1523L50.1866 25.0428V26.1182H49.5061Z" fill="black"/>
<path d="M55.173 26.219C54.8089 26.219 54.4785 26.135 54.1816 25.967C53.8848 25.7933 53.6496 25.5469 53.476 25.2277C53.3023 24.9084 53.2155 24.5276 53.2155 24.0851C53.2155 23.6371 53.3023 23.2534 53.476 22.9342C53.6552 22.6149 53.8848 22.3685 54.1648 22.1949C54.4449 22.0213 54.7389 21.9345 55.0469 21.9345C55.5678 21.9345 55.9683 22.1081 56.2483 22.4553C56.5339 22.8026 56.6767 23.2674 56.6767 23.8499C56.6767 23.9227 56.6739 23.9955 56.6683 24.0683C56.6683 24.1355 56.6627 24.1943 56.6515 24.2447H53.896C53.924 24.676 54.0584 25.0204 54.2993 25.2781C54.5457 25.5357 54.8649 25.6645 55.257 25.6645C55.453 25.6645 55.6322 25.6365 55.7946 25.5805C55.9627 25.5189 56.1223 25.4405 56.2735 25.3453L56.5171 25.7989C56.3435 25.9109 56.1447 26.009 55.9207 26.093C55.7022 26.177 55.453 26.219 55.173 26.219ZM53.8876 23.7491H56.0719C56.0719 23.3346 55.9823 23.021 55.803 22.8082C55.6294 22.5897 55.383 22.4805 55.0637 22.4805C54.7781 22.4805 54.5205 22.5925 54.2909 22.8166C54.0668 23.035 53.9324 23.3458 53.8876 23.7491Z" fill="black"/>
<path d="M58.889 26.219C58.4521 26.219 58.1469 26.093 57.9733 25.8409C57.8052 25.5889 57.7212 25.2613 57.7212 24.858V22.5981H57.1164V22.0773L57.7548 22.0353L57.8388 20.8927H58.4185V22.0353H59.5191V22.5981H58.4185V24.8664C58.4185 25.1184 58.4633 25.3145 58.5529 25.4545C58.6481 25.5889 58.8134 25.6561 59.0486 25.6561C59.1214 25.6561 59.1998 25.6449 59.2838 25.6225C59.3678 25.5945 59.4434 25.5693 59.5106 25.5469L59.6451 26.0678C59.5331 26.107 59.4098 26.1406 59.2754 26.1686C59.1466 26.2022 59.0178 26.219 58.889 26.219Z" fill="black"/>
<path d="M60.4422 26.1182V22.0353H61.1311V26.1182H60.4422ZM60.7951 21.1952C60.6607 21.1952 60.5487 21.156 60.459 21.0776C60.375 20.9935 60.333 20.8815 60.333 20.7415C60.333 20.6071 60.375 20.4979 60.459 20.4139C60.5487 20.3299 60.6607 20.2879 60.7951 20.2879C60.9295 20.2879 61.0387 20.3299 61.1227 20.4139C61.2123 20.4979 61.2571 20.6071 61.2571 20.7415C61.2571 20.8815 61.2123 20.9935 61.1227 21.0776C61.0387 21.156 60.9295 21.1952 60.7951 21.1952Z" fill="black"/>
<path d="M62.5097 26.1182V22.0353H63.081L63.1398 22.6233H63.165C63.361 22.4273 63.5682 22.2649 63.7866 22.1361C64.0051 22.0017 64.2543 21.9345 64.5343 21.9345C64.9656 21.9345 65.2792 22.0717 65.4752 22.3461C65.6769 22.6149 65.7777 23.0098 65.7777 23.5307V26.1182H65.0888V23.6231C65.0888 23.2422 65.0272 22.965 64.904 22.7914C64.7808 22.6177 64.5847 22.5309 64.3159 22.5309C64.1087 22.5309 63.9211 22.5841 63.753 22.6906C63.5906 22.797 63.4058 22.9538 63.1986 23.161V26.1182H62.5097Z" fill="black"/>
<path d="M68.4818 28C67.9833 28 67.5773 27.9048 67.2636 27.7144C66.95 27.5239 66.7932 27.2523 66.7932 26.8995C66.7932 26.7258 66.8464 26.5578 66.9528 26.3954C67.0592 26.2386 67.2048 26.0986 67.3896 25.9754V25.9418C67.2888 25.8801 67.202 25.7933 67.1292 25.6813C67.062 25.5693 67.0284 25.4349 67.0284 25.2781C67.0284 25.1044 67.076 24.9532 67.1712 24.8244C67.2664 24.6956 67.3672 24.5948 67.4736 24.522V24.4884C67.3392 24.3764 67.216 24.2251 67.104 24.0347C66.9976 23.8443 66.9444 23.6287 66.9444 23.3878C66.9444 23.091 67.0144 22.8334 67.1544 22.6149C67.2944 22.3965 67.482 22.2285 67.7173 22.1109C67.9525 21.9933 68.2073 21.9345 68.4818 21.9345C68.5938 21.9345 68.7002 21.9457 68.801 21.9681C68.9018 21.9849 68.9886 22.0073 69.0614 22.0353H70.4812V22.5645H69.6411C69.7363 22.6541 69.8147 22.7746 69.8763 22.9258C69.9435 23.0714 69.9771 23.231 69.9771 23.4046C69.9771 23.6959 69.9099 23.9479 69.7755 24.1607C69.6411 24.3736 69.4619 24.5388 69.2379 24.6564C69.0138 24.7684 68.7618 24.8244 68.4818 24.8244C68.2633 24.8244 68.0589 24.7768 67.8685 24.6816C67.7957 24.7432 67.7341 24.8132 67.6837 24.8916C67.6333 24.9644 67.6081 25.0568 67.6081 25.1689C67.6081 25.2977 67.6585 25.4041 67.7593 25.4881C67.8657 25.5721 68.0561 25.6141 68.3305 25.6141H69.1202C69.5963 25.6141 69.9519 25.6925 70.1872 25.8493C70.428 26.0006 70.5484 26.247 70.5484 26.5886C70.5484 26.8407 70.4644 27.0731 70.2964 27.2859C70.1284 27.4987 69.8903 27.6696 69.5823 27.7984C69.2743 27.9328 68.9074 28 68.4818 28ZM68.4818 24.3624C68.717 24.3624 68.9186 24.2755 69.0866 24.1019C69.2603 23.9227 69.3471 23.6847 69.3471 23.3878C69.3471 23.091 69.2631 22.8586 69.095 22.6906C68.927 22.5225 68.7226 22.4385 68.4818 22.4385C68.2409 22.4385 68.0365 22.5225 67.8685 22.6906C67.7005 22.8586 67.6165 23.091 67.6165 23.3878C67.6165 23.6847 67.7005 23.9227 67.8685 24.1019C68.0421 24.2755 68.2465 24.3624 68.4818 24.3624ZM68.5826 27.5211C68.9746 27.5211 69.2883 27.4343 69.5235 27.2607C69.7587 27.0927 69.8763 26.9023 69.8763 26.6894C69.8763 26.499 69.8035 26.3674 69.6579 26.2946C69.5179 26.2218 69.3163 26.1854 69.053 26.1854H68.3473C68.2689 26.1854 68.1821 26.1798 68.0869 26.1686C67.9973 26.1574 67.9077 26.1406 67.8181 26.1182C67.6725 26.2246 67.5661 26.3366 67.4988 26.4542C67.4316 26.5718 67.398 26.6894 67.398 26.8071C67.398 27.0255 67.5016 27.1991 67.7089 27.3279C67.9217 27.4567 68.2129 27.5211 68.5826 27.5211Z" fill="black"/>
<path d="M73.0864 26.1182V20.6071H74.6574C75.0718 20.6071 75.4331 20.6575 75.7411 20.7583C76.0491 20.8591 76.29 21.0299 76.4636 21.2708C76.6372 21.506 76.724 21.8252 76.724 22.2285C76.724 22.8054 76.5364 23.2338 76.1612 23.5139C75.7859 23.7939 75.2959 23.9339 74.691 23.9339H73.7837V26.1182H73.0864ZM73.7837 23.3626H74.607C75.0886 23.3626 75.4443 23.273 75.6739 23.0938C75.9091 22.909 76.0267 22.6205 76.0267 22.2285C76.0267 21.8308 75.9035 21.5564 75.6571 21.4052C75.4163 21.2484 75.055 21.17 74.5734 21.17H73.7837V23.3626Z" fill="black"/>
<path d="M78.5085 26.219C78.2508 26.219 78.0632 26.1406 77.9456 25.9838C77.8336 25.8213 77.7776 25.5917 77.7776 25.2949V20.1366H78.4665V25.3453C78.4665 25.4517 78.4861 25.5301 78.5253 25.5805C78.5645 25.6253 78.6093 25.6477 78.6597 25.6477C78.6821 25.6477 78.7017 25.6477 78.7185 25.6477C78.7409 25.6421 78.7717 25.6365 78.8109 25.6309L78.9033 26.1518C78.8585 26.1742 78.8053 26.191 78.7437 26.2022C78.6821 26.2134 78.6037 26.219 78.5085 26.219Z" fill="black"/>
<path d="M80.8598 26.219C80.5181 26.219 80.2325 26.1182 80.0029 25.9165C79.7788 25.7093 79.6668 25.4237 79.6668 25.0596C79.6668 24.6116 79.8656 24.2699 80.2633 24.0347C80.6665 23.7939 81.3022 23.6259 82.1703 23.5307C82.1703 23.357 82.1451 23.1918 82.0947 23.035C82.0499 22.8782 81.9659 22.7522 81.8427 22.6569C81.7251 22.5561 81.5542 22.5057 81.3302 22.5057C81.095 22.5057 80.8738 22.5505 80.6665 22.6401C80.4593 22.7298 80.2745 22.8306 80.1121 22.9426L79.8432 22.4637C80.0337 22.3405 80.2661 22.2229 80.5405 22.1109C80.8206 21.9933 81.123 21.9345 81.4478 21.9345C81.9463 21.9345 82.3075 22.0885 82.5316 22.3965C82.7556 22.699 82.8676 23.105 82.8676 23.6147V26.1182H82.2963L82.2375 25.6309H82.2123C82.0219 25.7877 81.8119 25.9249 81.5822 26.0426C81.3582 26.1602 81.1174 26.219 80.8598 26.219ZM81.0614 25.6645C81.2574 25.6645 81.4422 25.6169 81.6159 25.5217C81.7895 25.4265 81.9743 25.2921 82.1703 25.1184V23.9843C81.4926 24.0683 81.0166 24.1943 80.7421 24.3624C80.4733 24.5304 80.3389 24.746 80.3389 25.0092C80.3389 25.2389 80.4089 25.4069 80.5489 25.5133C80.6889 25.6141 80.8598 25.6645 81.0614 25.6645Z" fill="black"/>
<path d="M85.3227 26.219C84.8858 26.219 84.5806 26.093 84.407 25.8409C84.2389 25.5889 84.1549 25.2613 84.1549 24.858V22.5981H83.5501V22.0773L84.1885 22.0353L84.2725 20.8927H84.8522V22.0353H85.9528V22.5981H84.8522V24.8664C84.8522 25.1184 84.897 25.3145 84.9866 25.4545C85.0818 25.5889 85.2471 25.6561 85.4823 25.6561C85.5551 25.6561 85.6335 25.6449 85.7175 25.6225C85.8015 25.5945 85.8771 25.5693 85.9444 25.5469L86.0788 26.0678C85.9668 26.107 85.8435 26.1406 85.7091 26.1686C85.5803 26.2022 85.4515 26.219 85.3227 26.219Z" fill="black"/>
<path d="M86.9936 26.1182V22.5981H86.4391V22.0773L86.9936 22.0353V21.3884C86.9936 20.9739 87.0888 20.6463 87.2792 20.4055C87.4752 20.159 87.7777 20.0358 88.1865 20.0358C88.3153 20.0358 88.4385 20.0498 88.5562 20.0778C88.6738 20.1002 88.7774 20.131 88.867 20.1702L88.7158 20.6995C88.5646 20.6323 88.4105 20.5987 88.2537 20.5987C87.8729 20.5987 87.6824 20.8619 87.6824 21.3884V22.0353H88.5478V22.5981H87.6824V26.1182H86.9936Z" fill="black"/>
<path d="M90.8347 26.219C90.5043 26.219 90.1935 26.135 89.9022 25.967C89.6166 25.7989 89.3842 25.5553 89.2049 25.2361C89.0313 24.9168 88.9445 24.5332 88.9445 24.0851C88.9445 23.6259 89.0313 23.2366 89.2049 22.9174C89.3842 22.5981 89.6166 22.3545 89.9022 22.1865C90.1935 22.0185 90.5043 21.9345 90.8347 21.9345C91.1708 21.9345 91.4816 22.0185 91.7673 22.1865C92.0529 22.3545 92.2825 22.5981 92.4561 22.9174C92.6354 23.2366 92.725 23.6259 92.725 24.0851C92.725 24.5332 92.6354 24.9168 92.4561 25.2361C92.2825 25.5553 92.0529 25.7989 91.7673 25.967C91.4816 26.135 91.1708 26.219 90.8347 26.219ZM90.8347 25.6477C91.1876 25.6477 91.4704 25.5049 91.6832 25.2193C91.9017 24.928 92.0109 24.55 92.0109 24.0851C92.0109 23.6147 91.9017 23.2338 91.6832 22.9426C91.4704 22.6513 91.1876 22.5057 90.8347 22.5057C90.4875 22.5057 90.2047 22.6513 89.9862 22.9426C89.7678 23.2338 89.6586 23.6147 89.6586 24.0851C89.6586 24.55 89.7678 24.928 89.9862 25.2193C90.2047 25.5049 90.4875 25.6477 90.8347 25.6477Z" fill="black"/>
<path d="M93.8002 26.1182V22.0353H94.3715L94.4303 22.7746H94.4555C94.5955 22.5169 94.7664 22.3125 94.968 22.1613C95.1696 22.0101 95.3852 21.9345 95.6148 21.9345C95.7773 21.9345 95.9229 21.9625 96.0517 22.0185L95.9173 22.6233C95.8501 22.6009 95.7885 22.5841 95.7325 22.5729C95.6765 22.5617 95.6065 22.5561 95.5224 22.5561C95.3488 22.5561 95.1668 22.6261 94.9764 22.7662C94.7916 22.9062 94.6291 23.1498 94.4891 23.4971V26.1182H93.8002Z" fill="black"/>
<path d="M96.7127 26.1182V22.0353H97.284L97.3428 22.6233H97.368C97.5472 22.4273 97.7432 22.2649 97.9561 22.1361C98.1689 22.0017 98.3957 21.9345 98.6365 21.9345C98.9502 21.9345 99.1938 22.0045 99.3674 22.1445C99.5466 22.2789 99.6783 22.4693 99.7623 22.7158C99.9751 22.4861 100.191 22.2985 100.409 22.1529C100.628 22.0073 100.86 21.9345 101.106 21.9345C101.526 21.9345 101.837 22.0717 102.039 22.3461C102.246 22.6149 102.35 23.0098 102.35 23.5307V26.1182H101.661V23.6231C101.661 23.2422 101.599 22.965 101.476 22.7914C101.353 22.6177 101.162 22.5309 100.905 22.5309C100.602 22.5309 100.261 22.741 99.8799 23.161V26.1182H99.191V23.6231C99.191 23.2422 99.1294 22.965 99.0062 22.7914C98.883 22.6177 98.6897 22.5309 98.4265 22.5309C98.1241 22.5309 97.7824 22.741 97.4016 23.161V26.1182H96.7127Z" fill="black"/>
<path d="M0.170654 16.4247V5.00186H2.38077L2.56689 6.53731H2.65994C3.17176 6.041 3.73011 5.61449 4.33498 5.25777C4.93985 4.90105 5.63003 4.72269 6.40551 4.72269C7.63077 4.72269 8.52257 5.11818 9.08091 5.90917C9.63926 6.70016 9.91843 7.81685 9.91843 9.25924V16.4247H7.24303V9.60821C7.24303 8.66212 7.10344 7.99521 6.82427 7.60747C6.5451 7.21973 6.08756 7.02586 5.45167 7.02586C4.95536 7.02586 4.51334 7.14994 4.1256 7.39809C3.75337 7.63074 3.32686 7.9797 2.84606 8.44499V16.4247H0.170654Z" fill="#A6112A"/>
<path d="M18.0742 16.7038C17.0196 16.7038 16.0657 16.4712 15.2127 16.0059C14.3597 15.5251 13.685 14.8427 13.1887 13.9586C12.6924 13.0591 12.4443 11.9812 12.4443 10.7249C12.4443 9.48413 12.6924 8.41397 13.1887 7.51441C13.7005 6.61486 14.3597 5.92468 15.1662 5.44388C15.9727 4.96309 16.818 4.72269 17.702 4.72269C18.7411 4.72269 19.6097 4.95533 20.3076 5.42062C21.0055 5.8704 21.5329 6.50629 21.8896 7.3283C22.2463 8.1348 22.4247 9.07313 22.4247 10.1433C22.4247 10.7016 22.3859 11.1359 22.3084 11.4461H15.0499C15.1739 12.4542 15.5384 13.2375 16.1433 13.7958C16.7482 14.3541 17.5081 14.6333 18.4232 14.6333C18.9195 14.6333 19.377 14.5635 19.7958 14.4239C20.2301 14.2688 20.6566 14.0595 21.0753 13.7958L21.9827 15.4708C21.4398 15.8276 20.8349 16.1222 20.168 16.3549C19.5011 16.5875 18.8032 16.7038 18.0742 16.7038ZM15.0266 9.63147H20.0982C20.0982 8.74743 19.9044 8.05725 19.5166 7.56094C19.1289 7.04913 18.5473 6.79322 17.7718 6.79322C17.1049 6.79322 16.5078 7.04137 15.9804 7.53768C15.4686 8.01848 15.1507 8.71641 15.0266 9.63147Z" fill="#A6112A"/>
<path d="M26.8644 16.4247L23.84 5.00186H26.5387L27.9113 10.9343C28.0353 11.4771 28.1361 12.0199 28.2137 12.5628C28.3067 13.1056 28.4076 13.6562 28.5161 14.2146H28.6092C28.7177 13.6562 28.8263 13.1056 28.9349 12.5628C29.059 12.0044 29.1908 11.4616 29.3304 10.9343L30.8193 5.00186H33.2621L34.7742 10.9343C34.9138 11.4771 35.0457 12.0199 35.1697 12.5628C35.2938 13.1056 35.4179 13.6562 35.542 14.2146H35.635C35.7436 13.6562 35.8444 13.1056 35.9375 12.5628C36.0305 12.0199 36.1313 11.4771 36.2399 10.9343L37.6125 5.00186H40.1251L37.217 16.4247H34.0298L32.7037 11.0971C32.5796 10.5543 32.4633 10.0192 32.3548 9.49189C32.2462 8.94905 32.1299 8.3752 32.0058 7.77032H31.9127C31.8042 8.3752 31.6956 8.94905 31.587 9.49189C31.4785 10.0347 31.3621 10.5776 31.2381 11.1204L29.9353 16.4247H26.8644Z" fill="#A6112A"/>
<path d="M45.57 16.7038C44.7945 16.7038 44.0191 16.5565 43.2436 16.2618C42.4681 15.9516 41.8012 15.5716 41.2428 15.1219L42.4991 13.4003C43.0109 13.788 43.5227 14.0982 44.0346 14.3309C44.5464 14.5635 45.0892 14.6798 45.6631 14.6798C46.2835 14.6798 46.741 14.548 47.0357 14.2843C47.3304 14.0207 47.4777 13.695 47.4777 13.3072C47.4777 12.9815 47.3536 12.7179 47.1055 12.5163C46.8728 12.2991 46.5704 12.113 46.1981 11.9579C45.8259 11.7873 45.4382 11.6245 45.0349 11.4694C44.5386 11.2832 44.0423 11.0584 43.546 10.7947C43.0652 10.5155 42.6697 10.1666 42.3595 9.74779C42.0493 9.31353 41.8942 8.77845 41.8942 8.14255C41.8942 7.13443 42.2665 6.31242 43.0109 5.67653C43.7554 5.04063 44.7635 4.72269 46.0353 4.72269C46.8418 4.72269 47.563 4.86227 48.1989 5.14145C48.8348 5.42062 49.3854 5.73857 49.8507 6.09529L48.6176 7.72379C48.2144 7.42911 47.8034 7.19647 47.3846 7.02586C46.9814 6.83975 46.5549 6.74669 46.1051 6.74669C45.5312 6.74669 45.1047 6.87077 44.8255 7.11892C44.5464 7.35156 44.4068 7.64624 44.4068 8.00297C44.4068 8.45274 44.6394 8.79396 45.1047 9.0266C45.57 9.25924 46.1128 9.48413 46.7332 9.70127C47.2606 9.88738 47.7724 10.12 48.2687 10.3992C48.765 10.6629 49.176 11.0118 49.5017 11.4461C49.8429 11.8804 50.0135 12.4542 50.0135 13.1677C50.0135 14.1448 49.6335 14.9823 48.8736 15.6802C48.1136 16.3626 47.0124 16.7038 45.57 16.7038Z" fill="#A6112A"/>
<path d="M54.3999 16.4247L51.3755 5.00184H54.0742L55.4468 10.9343C55.5708 11.4771 55.6716 12.0199 55.7492 12.5628C55.8423 13.1056 55.9431 13.6562 56.0516 14.2145H56.1447C56.2533 13.6562 56.3618 13.1056 56.4704 12.5628C56.5945 12.0044 56.7263 11.4616 56.8659 10.9343L58.3548 5.00184H60.7976L62.3097 10.9343C62.4493 11.4771 62.5812 12.0199 62.7052 12.5628C62.8293 13.1056 62.9534 13.6562 63.0775 14.2145H63.1705C63.2791 13.6562 63.3799 13.1056 63.473 12.5628C63.566 12.0199 63.6668 11.4771 63.7754 10.9343L65.148 5.00184H67.6606L64.7525 16.4247H61.5653L60.2392 11.0971C60.1151 10.5543 59.9988 10.0192 59.8903 9.49187C59.7817 8.94903 59.6654 8.37518 59.5413 7.77031H59.4482C59.3397 8.37518 59.2311 8.94903 59.1225 9.49187C59.014 10.0347 58.8976 10.5775 58.7736 11.1204L57.4708 16.4247H54.3999Z" fill="#0C465E"/>
<path d="M74.4581 16.7038C73.512 16.7038 72.628 16.4712 71.806 16.0059C70.984 15.5251 70.3171 14.8427 69.8052 13.9586C69.2934 13.0591 69.0375 11.9812 69.0375 10.7249C69.0375 9.4531 69.2934 8.37518 69.8052 7.49113C70.3171 6.59158 70.984 5.90915 71.806 5.44387C72.628 4.96307 73.512 4.72267 74.4581 4.72267C75.4197 4.72267 76.3115 4.96307 77.1335 5.44387C77.9555 5.90915 78.6224 6.59158 79.1343 7.49113C79.6461 8.37518 79.902 9.4531 79.902 10.7249C79.902 11.9812 79.6461 13.0591 79.1343 13.9586C78.6224 14.8427 77.9555 15.5251 77.1335 16.0059C76.3115 16.4712 75.4197 16.7038 74.4581 16.7038ZM74.4581 14.517C75.2956 14.517 75.9548 14.168 76.4356 13.4701C76.9164 12.7721 77.1568 11.8571 77.1568 10.7249C77.1568 9.57717 76.9164 8.65435 76.4356 7.95642C75.9548 7.25849 75.2956 6.90952 74.4581 6.90952C73.6206 6.90952 72.9614 7.25849 72.4806 7.95642C72.0154 8.65435 71.7827 9.57717 71.7827 10.7249C71.7827 11.8571 72.0154 12.7721 72.4806 13.4701C72.9614 14.168 73.6206 14.517 74.4581 14.517Z" fill="#0C465E"/>
<path d="M82.5501 16.4247V5.00184H84.7602L84.9464 7.02584H85.0394C85.4427 6.28138 85.9312 5.71528 86.5051 5.32754C87.0789 4.9243 87.6683 4.72267 88.2732 4.72267C88.816 4.72267 89.2503 4.80022 89.576 4.95531L89.1107 7.28175C88.9091 7.21971 88.7229 7.17319 88.5523 7.14217C88.3817 7.11115 88.1724 7.09564 87.9242 7.09564C87.4744 7.09564 87.0014 7.274 86.5051 7.63072C86.0088 7.97193 85.5823 8.5768 85.2255 9.44534V16.4247H82.5501Z" fill="#0C465E"/>
<path d="M95.2536 16.7038C93.9353 16.7038 92.9969 16.3238 92.4386 15.5639C91.8957 14.7884 91.6243 13.788 91.6243 12.5628V7.1189H89.9958V5.11817L91.7639 5.00184L92.0896 1.88442H94.323V5.00184H97.231V7.1189H94.323V12.5628C94.323 13.8966 94.8581 14.5635 95.9282 14.5635C96.1299 14.5635 96.3392 14.5402 96.5564 14.4937C96.7735 14.4317 96.9596 14.3696 97.1147 14.3076L97.58 16.2851C97.2698 16.3936 96.9131 16.4867 96.5099 16.5642C96.1221 16.6573 95.7034 16.7038 95.2536 16.7038Z" fill="#0C465E"/>
<path d="M99.6349 16.4247V0H102.31V4.23412L102.217 6.44424C102.698 5.99446 103.233 5.59896 103.823 5.25775C104.412 4.90103 105.094 4.72267 105.87 4.72267C107.095 4.72267 107.987 5.11816 108.545 5.90915C109.104 6.70014 109.383 7.81683 109.383 9.25923V16.4247H106.707V9.60819C106.707 8.66211 106.568 7.99519 106.289 7.60745C106.009 7.21971 105.552 7.02584 104.916 7.02584C104.42 7.02584 103.978 7.14992 103.59 7.39807C103.218 7.63072 102.791 7.97968 102.31 8.44497V16.4247H99.6349Z" fill="#0C465E"/>
<path d="M113.375 21.1241C113.065 21.1241 112.794 21.1008 112.561 21.0543C112.328 21.0077 112.103 20.9535 111.886 20.8914L112.375 18.7976C112.483 18.8286 112.608 18.8597 112.747 18.8907C112.902 18.9372 113.05 18.9605 113.189 18.9605C113.794 18.9605 114.275 18.7744 114.632 18.4021C115.004 18.0454 115.283 17.5801 115.469 17.0063L115.678 16.2851L111.188 5.00184H113.91L115.888 10.6086C116.058 11.1049 116.221 11.6322 116.376 12.1905C116.547 12.7334 116.718 13.2762 116.888 13.819H116.981C117.121 13.2917 117.26 12.7566 117.4 12.2138C117.555 11.6555 117.702 11.1204 117.842 10.6086L119.564 5.00184H122.146L118.005 16.9365C117.524 18.2238 116.942 19.2396 116.26 19.9841C115.578 20.7441 114.616 21.1241 113.375 21.1241Z" fill="#0C465E"/>
<path d="M125.457 16.7038C125.069 16.7038 124.736 16.572 124.457 16.3083C124.193 16.0292 124.061 15.6802 124.061 15.2614C124.061 14.8117 124.193 14.4549 124.457 14.1913C124.736 13.9121 125.069 13.7725 125.457 13.7725C125.829 13.7725 126.147 13.9121 126.411 14.1913C126.69 14.4549 126.83 14.8117 126.83 15.2614C126.83 15.6802 126.69 16.0292 126.411 16.3083C126.147 16.572 125.829 16.7038 125.457 16.7038Z" fill="#A6112A"/>
<path d="M132.878 16.7038C131.932 16.7038 131.141 16.4247 130.506 15.8663C129.885 15.2925 129.575 14.5015 129.575 13.4933C129.575 12.2526 130.126 11.3065 131.227 10.6551C132.343 9.98818 134.104 9.52289 136.508 9.25923C136.508 8.77843 136.438 8.3209 136.298 7.88663C136.174 7.45236 135.942 7.10339 135.6 6.83973C135.275 6.56056 134.802 6.42097 134.181 6.42097C133.53 6.42097 132.917 6.54505 132.343 6.7932C131.77 7.04136 131.258 7.32053 130.808 7.63072L130.064 6.30465C130.591 5.96344 131.234 5.63774 131.994 5.32755C132.77 5.00184 133.607 4.83899 134.507 4.83899C135.887 4.83899 136.888 5.26551 137.508 6.11854C138.128 6.95605 138.439 8.0805 138.439 9.49187V16.4247H136.857L136.694 15.0753H136.624C136.097 15.5096 135.515 15.8896 134.879 16.2153C134.259 16.541 133.592 16.7038 132.878 16.7038ZM133.437 15.1684C133.98 15.1684 134.491 15.0366 134.972 14.7729C135.453 14.5092 135.965 14.137 136.508 13.6562V10.5155C134.631 10.7481 133.313 11.0971 132.553 11.5624C131.808 12.0277 131.436 12.6248 131.436 13.3538C131.436 13.9897 131.63 14.4549 132.018 14.7496C132.405 15.0288 132.878 15.1684 133.437 15.1684Z" fill="#0C465E"/>
<path d="M141.996 16.4247V5.11817H143.904V16.4247H141.996ZM142.973 2.79173C142.601 2.79173 142.291 2.68316 142.042 2.46603C141.81 2.23338 141.694 1.92319 141.694 1.53545C141.694 1.16322 141.81 0.860784 142.042 0.628141C142.291 0.395497 142.601 0.279175 142.973 0.279175C143.345 0.279175 143.648 0.395497 143.88 0.628141C144.129 0.860784 144.253 1.16322 144.253 1.53545C144.253 1.92319 144.129 2.23338 143.88 2.46603C143.648 2.68316 143.345 2.79173 142.973 2.79173Z" fill="#0C465E"/>
<path d="M147.19 2.20753V0.314072H146.55V0.0878906H148.101V0.314072H147.461V2.20753H147.19Z" fill="#0C465E"/>
<path d="M148.483 2.20753V0.0878906H148.806L149.213 1.2188C149.239 1.29204 149.264 1.36635 149.287 1.44175C149.313 1.51499 149.339 1.58823 149.365 1.66147H149.378C149.404 1.58823 149.427 1.51499 149.449 1.44175C149.473 1.36635 149.497 1.29204 149.523 1.2188L149.924 0.0878906H150.25V2.20753H149.998V1.04108C149.998 0.946303 150.002 0.841829 150.011 0.727661C150.02 0.611339 150.027 0.506865 150.034 0.414238H150.021L149.853 0.895682L149.452 1.99428H149.274L148.874 0.895682L148.706 0.414238H148.693C148.699 0.506865 148.706 0.611339 148.712 0.727661C148.721 0.841829 148.725 0.946303 148.725 1.04108V2.20753H148.483Z" fill="#0C465E"/>
<path d="M103.892 22.887V20.9935H103.252V20.7674H104.803V20.9935H104.164V22.887H103.892Z" fill="black"/>
<path d="M105.185 22.887V20.7674H105.508L105.915 21.8983C105.941 21.9715 105.966 22.0458 105.99 22.1212C106.016 22.1945 106.041 22.2677 106.067 22.3409H106.08C106.106 22.2677 106.13 22.1945 106.151 22.1212C106.175 22.0458 106.2 21.9715 106.226 21.8983L106.626 20.7674H106.953V22.887H106.701V21.7206C106.701 21.6258 106.705 21.5213 106.713 21.4071C106.722 21.2908 106.73 21.1863 106.736 21.0937H106.723L106.555 21.5752L106.154 22.6738H105.977L105.576 21.5752L105.408 21.0937H105.395C105.402 21.1863 105.408 21.2908 105.415 21.4071C105.423 21.5213 105.427 21.6258 105.427 21.7206V22.887H105.185Z" fill="black"/>
</svg>
